<?xml version="1.0" encoding="iso-8859-1"?>
<!-- Generator: Adobe Illustrator 19.0.0, SVG Export Plug-In . SVG Version: 6.00 Build 0)  -->
<svg version="1.1" id="Layer_1" xmlns="http://www.w3.org/2000/svg" xmlns:xlink="http://www.w3.org/1999/xlink" x="0px" y="0px"
	 viewBox="0 0 512 512" style="enable-background:new 0 0 512 512;" xml:space="preserve">
<g>
	<path style="fill:#754C29;" d="M442.147,434.337c8.533,0,15.515,6.982,15.515,15.515s-6.982,15.515-15.515,15.515
		c-8.533,0-15.515-6.982-15.515-15.515S433.614,434.337,442.147,434.337z"/>
	<path style="fill:#754C29;" d="M349.056,434.337c8.533,0,15.515,6.982,15.515,15.515s-6.982,15.515-15.515,15.515
		c-8.533,0-15.515-6.982-15.515-15.515S340.523,434.337,349.056,434.337z"/>
	<path style="fill:#754C29;" d="M255.965,434.337c8.533,0,15.515,6.982,15.515,15.515s-6.982,15.515-15.515,15.515
		s-15.515-6.982-15.515-15.515C240.45,441.319,247.432,434.337,255.965,434.337z"/>
	<path style="fill:#754C29;" d="M162.874,434.337c8.533,0,15.515,6.982,15.515,15.515s-6.982,15.515-15.515,15.515
		s-15.515-6.982-15.515-15.515C147.359,441.319,154.341,434.337,162.874,434.337z"/>
	<path style="fill:#754C29;" d="M69.783,434.337c8.533,0,15.515,6.982,15.515,15.515s-6.982,15.515-15.515,15.515
		s-15.515-6.982-15.515-15.515C54.268,441.319,61.25,434.337,69.783,434.337z"/>
</g>
<g>
	<path style="fill:#8B5E3C;" d="M442.147,403.307c25.677,0,46.545,20.868,46.545,46.545c0,25.677-20.868,46.545-46.545,46.545
		c-25.677,0-46.545-20.868-46.545-46.545C395.602,424.175,416.469,403.307,442.147,403.307z M457.662,449.852
		c0-8.533-6.982-15.515-15.515-15.515c-8.533,0-15.515,6.982-15.515,15.515s6.982,15.515,15.515,15.515
		C450.681,465.367,457.662,458.386,457.662,449.852z"/>
	<path style="fill:#8B5E3C;" d="M395.602,449.852c0,25.677-20.868,46.545-46.545,46.545c-25.677,0-46.545-20.868-46.545-46.545
		c0-25.677,20.868-46.545,46.545-46.545C374.733,403.307,395.602,424.175,395.602,449.852z M364.571,449.852
		c0-8.533-6.982-15.515-15.515-15.515c-8.533,0-15.515,6.982-15.515,15.515s6.982,15.515,15.515,15.515
		C357.59,465.367,364.571,458.386,364.571,449.852z"/>
	<path style="fill:#8B5E3C;" d="M302.511,449.852c0,25.677-20.868,46.545-46.545,46.545s-46.545-20.868-46.545-46.545
		c0-25.677,20.868-46.545,46.545-46.545S302.511,424.175,302.511,449.852z M271.48,449.852c0-8.533-6.982-15.515-15.515-15.515
		s-15.515,6.982-15.515,15.515s6.982,15.515,15.515,15.515C264.499,465.367,271.48,458.386,271.48,449.852z"/>
	<path style="fill:#8B5E3C;" d="M209.42,449.852c0,25.677-20.868,46.545-46.545,46.545s-46.545-20.868-46.545-46.545
		c0-25.677,20.868-46.545,46.545-46.545S209.42,424.175,209.42,449.852z M178.389,449.852c0-8.533-6.982-15.515-15.515-15.515
		s-15.515,6.982-15.515,15.515s6.982,15.515,15.515,15.515C171.408,465.367,178.389,458.386,178.389,449.852z"/>
	<path style="fill:#8B5E3C;" d="M116.328,449.852c0,25.677-20.868,46.545-46.545,46.545s-46.545-20.868-46.545-46.545
		c0-25.677,20.868-46.545,46.545-46.545S116.328,424.175,116.328,449.852z M85.298,449.852c0-8.533-6.982-15.515-15.515-15.515
		s-15.515,6.982-15.515,15.515s6.982,15.515,15.515,15.515S85.298,458.386,85.298,449.852z"/>
</g>
<g>
	<path style="fill:#A97C50;" d="M488.693,364.519v85.333c0-25.677-20.868-46.545-46.545-46.545
		c-25.677,0-46.545,20.868-46.545,46.545v-85.333H488.693z"/>
	<path style="fill:#A97C50;" d="M395.602,449.852c0-25.677-20.868-46.545-46.545-46.545c-25.677,0-46.545,20.868-46.545,46.545
		v-85.333h93.091V449.852z"/>
	<path style="fill:#A97C50;" d="M302.511,364.519v85.333c0-25.677-20.868-46.545-46.545-46.545s-46.545,20.868-46.545,46.545
		v-85.333H302.511z"/>
	<path style="fill:#A97C50;" d="M209.42,364.519v85.333c0-25.677-20.868-46.545-46.545-46.545s-46.545,20.868-46.545,46.545v-85.333
		H209.42z"/>
	<path style="fill:#A97C50;" d="M116.328,364.519v85.333c0-25.677-20.868-46.545-46.545-46.545s-46.545,20.868-46.545,46.545
		v-85.333H116.328z"/>
	<path style="fill:#A97C50;" d="M488.693,61.973v7.758h-93.091v-7.758c0-25.677,20.868-46.545,46.545-46.545
		C467.825,15.428,488.693,36.296,488.693,61.973z"/>
	<path style="fill:#A97C50;" d="M395.602,61.973v7.758h-93.091v-7.758c0-25.677,20.868-46.545,46.545-46.545
		C374.733,15.428,395.602,36.296,395.602,61.973z"/>
	<path style="fill:#A97C50;" d="M302.511,61.973v7.758H209.42v-7.758c0-25.677,20.868-46.545,46.545-46.545
		S302.511,36.296,302.511,61.973z"/>
	<path style="fill:#A97C50;" d="M209.42,61.973v7.758h-93.092v-7.758c0-25.677,20.868-46.545,46.545-46.545
		C188.552,15.428,209.42,36.296,209.42,61.973z"/>
	<path style="fill:#A97C50;" d="M116.328,61.973v7.758H23.238v-7.758c0-25.677,20.868-46.545,46.545-46.545
		S116.328,36.296,116.328,61.973z"/>
	<rect x="395.602" y="69.735" style="fill:#A97C50;" width="93.088" height="294.789"/>
	<rect x="302.514" y="69.735" style="fill:#A97C50;" width="93.088" height="294.789"/>
	<rect x="209.415" y="69.735" style="fill:#A97C50;" width="93.088" height="294.789"/>
	<rect x="116.326" y="69.735" style="fill:#A97C50;" width="93.088" height="294.789"/>
	<rect x="23.238" y="69.735" style="fill:#A97C50;" width="93.088" height="294.789"/>
</g>
<path style="fill:#231F20;" d="M512,77.701V61.935h-15.394c-0.068-29.954-24.455-54.303-54.425-54.303
	c-19.701,0-36.991,10.522-46.545,26.241c-9.555-15.719-26.844-26.241-46.545-26.241c-19.701,0-36.991,10.522-46.545,26.241
	C292.99,18.154,275.7,7.632,256,7.632s-36.99,10.522-46.545,26.241C199.9,18.154,182.61,7.632,162.909,7.632
	c-19.701,0-36.992,10.522-46.546,26.241C106.808,18.154,89.518,7.632,69.818,7.632c-29.97,0-54.356,24.349-54.425,54.303H0v15.765
	h15.39v279.022H0v15.765h15.39v77.451c0,30.012,24.416,54.428,54.428,54.428c19.701,0,36.99-10.522,46.545-26.241
	c9.555,15.719,26.845,26.241,46.546,26.241s36.99-10.522,46.545-26.241c9.555,15.719,26.845,26.241,46.545,26.241
	s36.99-10.522,46.545-26.241c9.555,15.719,26.845,26.241,46.545,26.241c19.701,0,36.99-10.522,46.545-26.241
	c9.555,15.719,26.845,26.241,46.545,26.241c30.012,0,54.428-24.416,54.428-54.428v-77.45h15.39v-15.765h-15.39V77.701H512z
	 M69.818,23.398c21.277,0,38.591,17.277,38.66,38.538H31.158C31.226,40.674,48.541,23.398,69.818,23.398z M69.818,488.602
	c-21.319,0-38.663-17.344-38.663-38.663s17.344-38.663,38.663-38.663s38.663,17.344,38.663,38.663S91.137,488.602,69.818,488.602z
	 M108.481,411.675c-9.871-9.973-23.556-16.164-38.663-16.164s-28.792,6.19-38.663,16.164v-39.186h77.325V411.675z M108.481,356.724
	H31.155V77.701h77.325V356.724z M162.909,23.398c21.277,0,38.591,17.277,38.66,38.538h-77.32
	C124.317,40.674,141.633,23.398,162.909,23.398z M162.909,488.602c-21.319,0-38.664-17.344-38.664-38.663
	s17.345-38.663,38.664-38.663s38.663,17.344,38.663,38.663S184.228,488.602,162.909,488.602z M201.572,411.675
	c-9.871-9.973-23.556-16.164-38.663-16.164c-15.107,0-28.793,6.19-38.664,16.164v-39.187h77.326V411.675z M201.572,356.724h-77.326
	V77.701h77.326V356.724z M256,23.398c21.277,0,38.591,17.277,38.659,38.538H217.34C217.409,40.674,234.723,23.398,256,23.398z
	 M256,488.602c-21.319,0-38.663-17.344-38.663-38.663s17.344-38.663,38.663-38.663s38.663,17.344,38.663,38.663
	S277.319,488.602,256,488.602z M294.663,411.675c-9.871-9.973-23.556-16.164-38.663-16.164c-15.107,0-28.792,6.19-38.663,16.164
	v-39.186h77.325V411.675z M294.663,356.724h-77.325V77.701h77.325V356.724z M349.092,23.398c21.277,0,38.591,17.277,38.659,38.538
	h-77.319C310.499,40.674,327.814,23.398,349.092,23.398z M349.092,488.602c-21.319,0-38.663-17.344-38.663-38.663
	s17.344-38.663,38.663-38.663c21.319,0,38.663,17.344,38.663,38.663S370.41,488.602,349.092,488.602z M387.754,411.675
	c-9.871-9.973-23.556-16.164-38.663-16.164c-15.107,0-28.792,6.19-38.663,16.164v-39.186h77.325L387.754,411.675L387.754,411.675z
	 M387.754,356.724h-77.326V77.701h77.325v279.024H387.754z M442.182,23.398c21.277,0,38.591,17.277,38.659,38.538h-77.319
	C403.59,40.674,420.905,23.398,442.182,23.398z M442.182,488.602c-21.319,0-38.663-17.344-38.663-38.663
	s17.344-38.663,38.663-38.663c21.319,0,38.663,17.344,38.663,38.663S463.501,488.602,442.182,488.602z M480.845,411.675
	c-9.871-9.973-23.556-16.164-38.663-16.164c-15.106,0-28.792,6.19-38.663,16.164v-39.186h77.325L480.845,411.675L480.845,411.675z
	 M480.845,356.724h-77.325V77.701h77.325V356.724z"/>
<rect x="62.062" y="92.962" style="fill:#FFFFFF;" width="15.516" height="15.765"/>
<rect x="155.151" y="92.962" style="fill:#231F20;" width="15.516" height="15.765"/>
<rect x="248.239" y="92.962" style="fill:#FFFFFF;" width="15.515" height="15.765"/>
<rect x="341.338" y="92.962" style="fill:#231F20;" width="15.515" height="15.765"/>
<rect x="155.151" y="325.689" style="fill:#FFFFFF;" width="15.516" height="15.765"/>
<rect x="248.239" y="325.689" style="fill:#231F20;" width="15.515" height="15.765"/>
<rect x="341.338" y="325.689" style="fill:#FFFFFF;" width="15.515" height="15.765"/>
<g>
	<rect x="62.062" y="325.689" style="fill:#231F20;" width="15.516" height="15.765"/>
	<rect x="434.427" y="325.689" style="fill:#231F20;" width="15.515" height="15.765"/>
</g>
<rect x="434.427" y="92.962" style="fill:#FFFFFF;" width="15.515" height="15.765"/>
<g>
	<path style="fill:#231F20;" d="M69.818,426.542c-12.901,0-23.398,10.495-23.398,23.398s10.495,23.399,23.398,23.399
		s23.399-10.496,23.399-23.399S82.719,426.542,69.818,426.542z M69.818,457.573c-4.208,0-7.632-3.424-7.632-7.634
		c0-4.208,3.424-7.632,7.632-7.632c4.209,0,7.634,3.424,7.634,7.632C77.45,454.149,74.027,457.573,69.818,457.573z"/>
	<path style="fill:#231F20;" d="M162.909,426.542c-12.901,0-23.399,10.495-23.399,23.398s10.496,23.399,23.399,23.399
		c12.901,0,23.398-10.496,23.398-23.399S175.811,426.542,162.909,426.542z M162.909,457.573c-4.209,0-7.634-3.424-7.634-7.634
		c0-4.208,3.424-7.632,7.634-7.632c4.208,0,7.632,3.424,7.632,7.632C170.542,454.149,167.118,457.573,162.909,457.573z"/>
	<path style="fill:#231F20;" d="M256,426.542c-12.901,0-23.399,10.495-23.399,23.398s10.496,23.399,23.399,23.399
		c12.901,0,23.398-10.496,23.398-23.399S268.902,426.542,256,426.542z M256,457.573c-4.209,0-7.634-3.424-7.634-7.634
		c0-4.208,3.424-7.632,7.634-7.632c4.208,0,7.632,3.424,7.632,7.632C263.632,454.149,260.208,457.573,256,457.573z"/>
	<path style="fill:#231F20;" d="M349.092,426.542c-12.901,0-23.398,10.495-23.398,23.398s10.495,23.399,23.398,23.399
		c12.901,0,23.398-10.496,23.398-23.399S361.993,426.542,349.092,426.542z M349.092,457.573c-4.208,0-7.632-3.424-7.632-7.634
		c0-4.208,3.424-7.632,7.632-7.632c4.208,0,7.632,3.424,7.632,7.632C356.723,454.149,353.299,457.573,349.092,457.573z"/>
	<path style="fill:#231F20;" d="M442.182,426.542c-12.901,0-23.398,10.495-23.398,23.398s10.495,23.399,23.398,23.399
		c12.901,0,23.398-10.496,23.398-23.399S455.083,426.542,442.182,426.542z M442.182,457.573c-4.208,0-7.632-3.424-7.632-7.634
		c0-4.208,3.424-7.632,7.632-7.632c4.208,0,7.632,3.424,7.632,7.632C449.814,454.149,446.39,457.573,442.182,457.573z"/>
</g>
<g>
</g>
<g>
</g>
<g>
</g>
<g>
</g>
<g>
</g>
<g>
</g>
<g>
</g>
<g>
</g>
<g>
</g>
<g>
</g>
<g>
</g>
<g>
</g>
<g>
</g>
<g>
</g>
<g>
</g>
</svg>
