<svg height="512pt" viewBox="-22 0 512 512.00012" width="512pt" xmlns="http://www.w3.org/2000/svg"><path d="m240.304688 101.035156c-7.957032-27.820312-19.945313-54.328125-35.585938-78.679687-3.359375-5.328125-9.226562-8.550781-15.527344-8.53125-2.878906-.019531-5.71875.652343-8.277344 1.960937-4.832031 2.386719-8.371093 6.769532-9.683593 11.992188s-.269531 10.757812 2.855469 15.144531c17.066406 24.066406 38.058593 67.242187 39.167968 91.648437v25.070313h27.109375l9.949219-5.683594zm0 0" fill="#4e342e"/><path d="m318.898438 127.316406-.085938.085938-7.679688 20.480468-46.59375 20.308594-5.972656-8.617187-12.117187-17.664063c-6.058594-19.285156-31.402344-120.320312 94.71875-132.183594 7.9375-.765624 16.554687-1.191406 25.769531-1.191406 0 0 6.058594 78.589844-48.039062 118.78125zm0 0" fill="#558b30"/><path d="m293.125 127.316406-.085938.085938-7.765624 20.480468-26.707032 11.691407-12.117187-17.664063c-6.058594-19.285156-31.402344-120.320312 94.71875-132.183594.597656 9.984376 2.132812 80.300782-48.042969 117.589844zm0 0" fill="#8bc34a"/><path d="m459.441406 181.929688c-3.550781-1.78125-7.464844-2.714844-11.433594-2.730469-.941406 0-1.878906.085937-2.816406.171875l-.429687.085937c-9.457031 1.175781-17.472657 7.527344-20.777344 16.46875-3.304687 8.945313-1.34375 18.980469 5.078125 26.027344-.792969-.070313-1.59375-.101563-2.390625-.085937-14.316406-.007813-27.117187 8.921874-32.054687 22.363281-4.9375 13.4375-.964844 28.53125 9.953124 37.796875-12.648437 1.894531-23.179687 10.703125-27.28125 22.820312-4.097656 12.117188-1.078124 25.507813 7.828126 34.695313h.082031c2.558593 2.660156 5.5625 4.855469 8.875 6.484375v.085937c4.808593 2.457031 10.132812 3.746094 15.53125 3.753907h.597656c-7.074219 6.878906-10.285156 16.816406-8.578125 26.535156s8.117188 17.964844 17.113281 22.019531c.09375.089844.210938.148437.339844.171875 1.640625.746094 3.359375 1.316406 5.121094 1.703125 2.207031.519531 4.472656.777344 6.738281.769531 4.339844-.011718 8.621094-.972656 12.546875-2.816406-18.433594 40.277344-44.628906 77.3125-83.03125 94.722656-15.929687 7.929688-33.714844 11.382813-51.457031 9.980469l-3.324219-.511719h-.085937c-8.070313-1.515625-15.773438-4.554687-22.699219-8.957031-3.832031-2.769531-7.988281-5.0625-12.375-6.828125-4.644531-1.722656-9.550781-2.617188-14.503907-2.644531-4.113281.023437-8.195312.65625-12.121093 1.875-.851563.257812-1.621094.511719-2.386719.769531-4.386719 1.765625-8.542969 4.058594-12.375 6.828125-7.910156 5.019531-16.820312 8.253906-26.109375 9.46875-6.929687.8125-13.941406.640625-20.824219-.511719h-.085937c-10.550781-1.804687-20.824219-4.988281-30.546875-9.46875-61.269532-27.820312-91.394532-105.304687-108.542969-166.828125-6.066406-21.28125-9.027344-43.324219-8.789063-65.449219 0-2.050781 0-4.011718.082032-5.976562.773437-20.304688 4.894531-40.34375 12.203125-59.304688l12.289062-24.148437c17.925781-28.425781 47.769531-47.191406 81.152344-51.03125 3.171875-.398437 6.359375-.628906 9.558594-.683594h1.621093c14.757813-.078125 29.390626 2.703125 43.09375 8.191407 6.140626 2.390624 12.457032 4.78125 19.027344 6.828124 10.007813 3.257813 20.289063 5.597657 30.71875 6.996094h.085938c.789062.15625 1.589844.269532 2.390625.34375 3.15625.339844 6.398437.597656 9.558593.683594 21.289063-1.382812 42.1875-6.40625 61.78125-14.851562 9.632813-3.824219 19.734376-6.351563 30.035157-7.507813 1.964843-.253906 3.839843-.425781 5.804687-.511719h.167969c44.5-2.308594 86.078125 22.175782 105.644531 62.207032zm0 0" fill="#c52828"/><path d="m435.207031 181.929688c-3.550781-1.78125-7.464843-2.714844-11.4375-2.730469-.9375 0-1.875.085937-2.8125.171875l-.429687.085937c-9.457032 1.175781-17.472656 7.527344-20.777344 16.46875-3.304688 8.945313-1.34375 18.980469 5.078125 26.027344-.796875-.070313-1.59375-.101563-2.390625-.085937-14.316406-.007813-27.117188 8.921874-32.058594 22.363281-4.9375 13.4375-.960937 28.53125 9.957032 37.796875-12.652344 1.894531-23.179688 10.703125-27.28125 22.820312-4.097657 12.117188-1.078126 25.507813 7.824218 34.695313h.085938c2.558594 2.660156 5.5625 4.855469 8.875 6.484375v.085937c4.808594 2.457031 10.128906 3.746094 15.53125 3.753907h.597656c-8.726562 8.441406-11.457031 21.335937-6.898438 32.59375 4.558594 11.253906 15.492188 18.613281 27.632813 18.605468 4.15625.007813 8.261719-.898437 12.035156-2.644531.179688-.019531.355469-.078125.511719-.171875-.085938.085938-.085938.257812-.171875.34375-18.433594 40.105469-44.542969 77.054688-82.859375 94.378906-9.722656 4.480469-19.996094 7.664063-30.546875 9.46875h-.085937c-8.070313-1.515625-15.773438-4.554687-22.699219-8.957031-3.832031-2.769531-7.988281-5.0625-12.375-6.828125-4.644531-1.722656-9.550781-2.617188-14.503907-2.644531-4.113281.023437-8.195312.65625-12.121093 1.875-3.921875-1.21875-8.007813-1.851563-12.117188-1.875-4.949219 0-9.8125 10.921875-14.503906 12.628906-4.386719 1.765625-8.542969 4.058594-12.375 6.824219-6.910156 4.4375-14.675781-2.558594-22.699219-1.023438h-.085937c-10.550781-1.804687-20.824219-4.988281-30.546875-9.46875-61.269532-27.820312-91.394532-105.304687-108.542969-166.828125-6.066406-21.28125-9.027344-43.324219-8.789063-65.449219 0-2.050781 0-4.011718.082032-5.976562.773437-20.304688 4.894531-40.34375 12.203125-59.304688l12.289062-24.148437c17.925781-28.425781 47.769531-47.191406 81.152344-51.03125 10.300781 1.167969 20.398437 3.691406 30.035156 7.507813 6.144531 2.390624 12.460938 4.78125 19.03125 6.828124 10.035157 3.257813 20.347657 5.597657 30.804688 6.996094.789062.15625 1.585937.269532 2.390625.34375 3.15625.339844 6.398437.597656 9.554687.683594 4.085938-.09375 8.160157-.433594 12.203125-1.027344h.085938c17.007812-2.539062 33.632812-7.183594 49.492187-13.824218 11.445313-4.566407 23.542969-7.273438 35.84375-8.019532h.167969c6.089844-.34375 12.199219-.171875 18.261719.511719 37.703125 4.421875 70.597656 27.648437 87.382812 61.695313zm0 0" fill="#f44335"/><path d="m170.671875 238.933594c0 14.136718-11.460937 25.601562-25.597656 25.601562-14.140625 0-25.601563-11.464844-25.601563-25.601562 0-14.140625 11.460938-25.601563 25.601563-25.601563 14.136719 0 25.597656 11.460938 25.597656 25.601563zm0 0" fill="#00bcd4"/><path d="m273.074219 238.933594c0 14.136718-11.464844 25.601562-25.601563 25.601562-14.136718 0-25.601562-11.464844-25.601562-25.601562 0-14.140625 11.464844-25.601563 25.601562-25.601563 14.136719 0 25.601563 11.460938 25.601563 25.601563zm0 0" fill="#00bcd4"/><path d="m173.003906 290.132812h46.539063c15.425781 0 27.929687 12.503907 27.929687 27.929688v46.542969c0 15.421875-12.503906 27.929687-27.929687 27.929687h-46.539063c-15.425781 0-27.929687-12.507812-27.929687-27.929687v-46.542969c0-15.425781 12.503906-27.929688 27.929687-27.929688zm0 0" fill="#4e342e"/><path d="m62.828125 53.835938c6.65625 11.96875 11.324219 24.9375 13.816406 38.402343.578125 3.054688-.546875 6.179688-2.941406 8.164063-2.394531 1.980468-5.679687 2.503906-8.570313 1.367187-12.765624-4.957031-24.640624-11.945312-35.167968-20.703125-4.863282-5.871094-6.226563-13.890625-3.574219-21.035156 2.652344-7.148438 8.914063-12.339844 16.429687-13.617188 7.515626-1.277343 15.144532 1.550782 20.007813 7.421876zm0 0" fill="#00bcd4"/><path d="m351.398438 165.128906c-10.292969 9.050782-19.050782 19.714844-25.929688 31.574219-1.578125 2.679687-1.570312 6.007813.019531 8.679687 1.589844 2.675782 4.507813 4.273438 7.617188 4.171876 13.695312-.375 27.242187-2.96875 40.105469-7.679688 6.554687-3.894531 10.535156-10.988281 10.441406-18.613281-.09375-7.621094-4.25-14.617188-10.898438-18.347657-6.648437-3.726562-14.78125-3.628906-21.335937.265626zm0 0" fill="#00bcd4"/><path d="m453.296875 77.140625c-10.265625 9.054687-21.9375 16.375-34.558594 21.675781-2.253906.984375-4.820312.9375-7.035156-.128906s-3.851563-3.042969-4.488281-5.417969c-.425782-1.175781-.515625-2.445312-.253906-3.667969 2.09375-13.523437 6.390624-26.609374 12.714843-38.742187 1.535157-1.910156 3.347657-3.578125 5.375-4.949219 8.785157-5.53125 20.277344-3.945312 27.238281 3.753906 6.964844 7.699219 7.390626 19.289063 1.007813 27.476563zm0 0" fill="#00838f"/><path d="m430.683594 77.140625c-6.957032 6.539063-14.871094 11.976563-23.46875 16.128906-.425782-1.175781-.515625-2.445312-.253906-3.667969 2.09375-13.523437 6.390624-26.609374 12.714843-38.742187 1.535157-1.910156 3.347657-3.578125 5.375-4.949219.703125.34375 1.363281.773438 1.964844 1.277344 4.457031 3.488281 7.351563 8.601562 8.039063 14.21875s-.886719 11.277344-4.371094 15.734375zm0 0" fill="#00bcd4"/><path d="m41.144531 151.894531c10.296875 9.050781 19.054688 19.714844 25.933594 31.570313 1.550781 2.6875 1.527344 6.003906-.070313 8.664062-1.597656 2.660156-4.507812 4.246094-7.609374 4.136719-13.699219-.367187-27.242188-2.960937-40.105469-7.679687-6.554688-3.890626-10.535157-10.988282-10.441407-18.609376.09375-7.625 4.246094-14.617187 10.898438-18.347656 6.648438-3.730468 14.78125-3.628906 21.335938.265625zm0 0" fill="#00bcd4"/><path d="m247.472656 361.8125v2.816406c-.039062 15.394532-12.507812 27.867188-27.902344 27.90625h-46.59375c-15.394531-.039062-27.867187-12.511718-27.902343-27.90625v-2.816406c10.777343-17.996094 30.21875-29.011719 51.199219-29.011719 20.980468 0 40.417968 11.015625 51.199218 29.011719zm0 0" fill="#c52828"/><path d="m170.671875 238.933594c0-14.140625-11.460937-25.601563-25.597656-25.601563-14.140625 0-25.601563 11.460938-25.601563 25.601563 0 14.136718 11.460938 25.601562 25.601563 25.601562 14.136719 0 25.597656-11.464844 25.597656-25.601562zm-34.132813 0c0-4.714844 3.820313-8.535156 8.535157-8.535156 4.710937 0 8.53125 3.820312 8.53125 8.535156 0 4.710937-3.820313 8.53125-8.53125 8.53125-4.714844 0-8.535157-3.820313-8.535157-8.53125zm0 0"/><path d="m247.472656 213.332031c-14.136718 0-25.601562 11.460938-25.601562 25.601563 0 14.136718 11.464844 25.601562 25.601562 25.601562 14.136719 0 25.601563-11.464844 25.601563-25.601562 0-14.140625-11.464844-25.601563-25.601563-25.601563zm0 34.132813c-4.710937 0-8.535156-3.820313-8.535156-8.53125 0-4.714844 3.824219-8.535156 8.535156-8.535156 4.710938 0 8.535156 3.820312 8.535156 8.535156 0 4.710937-3.824218 8.53125-8.535156 8.53125zm0 0"/><path d="m219.542969 281.601562h-46.539063c-20.128906.023438-36.441406 16.332032-36.464844 36.460938v46.542969c.023438 20.125 16.335938 36.4375 36.464844 36.460937h46.539063c20.128906-.023437 36.441406-16.335937 36.464843-36.460937v-46.542969c-.023437-20.128906-16.335937-36.4375-36.464843-36.460938zm-46.539063 17.066407h46.539063c10.707031.011719 19.382812 8.6875 19.394531 19.394531v21.332031c-24.84375-20.230469-60.484375-20.230469-85.332031 0v-21.332031c.015625-10.707031 8.691406-19.382812 19.398437-19.394531zm46.539063 85.332031h-46.539063c-10.707031-.015625-19.382812-8.691406-19.398437-19.394531v-.171875c9.410156-14.414063 25.457031-23.101563 42.667969-23.101563 17.210937 0 33.257812 8.6875 42.664062 23.101563v.171875c-.011719 10.703125-8.6875 19.378906-19.394531 19.394531zm0 0"/><path d="m134.039062 190.234375c-3.332031-3.332031-8.734374-3.332031-12.066406 0l-17.066406 17.066406c-2.21875 2.140625-3.109375 5.316407-2.328125 8.296875.78125 2.984375 3.113281 5.316406 6.09375 6.097656 2.984375.777344 6.15625-.109374 8.300781-2.328124l17.066406-17.066407c3.332032-3.332031 3.332032-8.734375 0-12.066406zm0 0"/><path d="m270.574219 190.234375c-3.351563-3.234375-8.671875-3.1875-11.964844.101563-3.289063 3.292968-3.335937 8.617187-.101563 11.964843l17.066407 17.066407c3.347656 3.234374 8.667969 3.1875 11.960937-.105469 3.292969-3.289063 3.335938-8.613281.105469-11.960938zm0 0"/><path d="m346.273438 111.90625c33.191406-43.496094 29.394531-101.164062 29.199218-104.03125-.34375-4.453125-4.066406-7.8867188-8.535156-7.875-56.703125 0-96.296875 14.753906-117.691406 43.84375-5.078125 6.949219-9.078125 14.625-11.867188 22.765625-7.113281-16.929687-15.617187-33.246094-25.421875-48.773437-4.898437-7.851563-13.515625-12.597657-22.765625-12.546876-4.195312-.03125-8.332031.945313-12.066406 2.851563-7.066406 3.492187-12.246094 9.90625-14.171875 17.546875-1.925781 7.644531-.402344 15.746094 4.167969 22.167969 15.621094 22.589843 27.53125 47.527343 35.285156 73.871093-1.703125-.648437-3.480469-1.304687-5.050781-1.910156-49.46875-20.640625-106.632813-5.242187-139.042969 37.453125-3.746094-4.863281-8.1875-9.152343-13.183594-12.722656-14.179687-8.425781-32.507812-3.761719-40.933594 10.417969-8.425781 14.179687-3.761718 32.507812 10.417969 40.933594 6.535157 3.074218 13.492188 5.136718 20.644531 6.128906-12.683593 41.160156-12.84375 85.160156-.460937 126.414062 25.957031 93.105469 62.992187 149.484375 113.261719 172.3125 14.539062 6.984375 30.386718 10.816406 46.507812 11.246094 3.199219.003906 6.390625-.191406 9.566406-.589844 10.542969-1.402344 20.65625-5.074218 29.644532-10.769531l1.363281-.851563c2.878906-2.070312 5.996094-3.789062 9.285156-5.121093 7.492188-2.859375 15.777344-2.859375 23.269531 0 3.257813 1.316406 6.351563 3.015625 9.207032 5.0625l1.425781.929687c8.980469 5.671875 19.082031 9.332032 29.613281 10.726563 3.152344.402343 6.324219.609375 9.503906.613281 16.125-.441406 31.976563-4.28125 46.515626-11.265625 35.148437-15.9375 64.511718-49.226563 87.261718-98.941406 1.484375-3.253907.789063-7.085938-1.75-9.605469-2.539062-2.515625-6.375-3.1875-9.617187-1.675781-2.789063 1.316406-5.832031 2.007812-8.917969 2.023437-11.78125 0-21.332031-9.554687-21.332031-21.335937-.019531-5.730469 2.324219-11.21875 6.484375-15.164063 2.4375-2.464844 3.113281-6.171875 1.707031-9.34375-1.421875-3.253906-4.636719-5.359375-8.191406-5.359375-13.261719-.179687-24.191407-10.457031-25.183594-23.6875-.988281-13.226562 8.289063-25.019531 21.378906-27.167969 3.3125-.492187 6.035157-2.878906 6.953125-6.101562.921875-3.222656-.132812-6.683594-2.6875-8.851562-8.195312-6.949219-11.179687-18.28125-7.464844-28.363282 3.710938-10.085937 13.324219-16.78125 24.070313-16.761718.488281-.023438.980469-.023438 1.46875 0 3.523437.386718 6.917969-1.449219 8.527344-4.605469 1.609375-3.160157 1.097656-6.984375-1.28125-9.609375-4.527344-4.988282-5.6875-12.175782-2.953125-18.335938 2.730468-6.15625 8.835937-10.121094 15.574218-10.113281 2.644532.011719 5.253907.636719 7.617188 1.824219 3.304688 1.648437 7.289062.984375 9.882812-1.644532 2.589844-2.625 3.199219-6.621093 1.511719-9.898437-22.355469-45.226563-70.605469-71.640625-120.746093-66.109375zm-83.277344-57.949219c16.996094-23.117187 49.125-35.464843 95.570312-36.769531-.261718 20.042969-4.871094 72.90625-43.996094 102.644531-14.894531 6.210938-30.46875 10.636719-46.40625 13.175781 9.480469-30.421874 27.136719-64.433593 50.742188-73.890624 2.890625-1.089844 4.96875-3.65625 5.425781-6.714844.460938-3.054688-.769531-6.121094-3.210937-8.015625-2.445313-1.890625-5.71875-2.316407-8.566406-1.105469-34.429688 13.78125-52.957032 59.671875-60.816407 85.136719-3.898437-18.074219-6.910156-49.75 11.257813-74.460938zm-83.5-24.089843c.710937-2.863282 2.675781-5.253907 5.34375-6.511719 4.53125-2.046875 9.878906-.542969 12.679687 3.566406 14.960938 23.363281 26.5 48.75 34.269531 75.382813.074219 9.789062 1.136719 19.542968 3.171876 29.117187-4.382813-.894531-8.984376-2.03125-13.796876-3.414063-3.976562-28.371093-25.546874-69.46875-40.105468-90.035156-1.703125-2.332031-2.277344-5.304687-1.5625-8.105468zm-160.621094 133.820312c1.734375-2.917969 4.554688-5.03125 7.847656-5.867188 3.289063-.835937 6.777344-.332031 9.695313 1.402344 5.714843 4.96875 10.78125 10.644532 15.070312 16.886719.101563.164063.230469.308594.347657.472656 2.765624 3.726563 5.429687 7.601563 7.546874 11.152344-12.269531-.394531-24.414062-2.589844-36.046874-6.511719-6.074219-3.613281-8.070313-11.460937-4.460938-17.535156zm394.996094 41.113281c0 3.40625.515625 6.792969 1.527344 10.042969-12.859376 3.519531-23.335938 12.851562-28.316407 25.222656-4.976562 12.367188-3.886719 26.355469 2.949219 37.804688-15.175781 7.804687-24.222656 23.921875-22.976562 40.945312 1.242187 17.019532 12.535156 31.652344 28.683593 37.167969-2.105469 4.796875-3.195312 9.976563-3.199219 15.214844.027344 20.238281 15.734376 36.992187 35.925782 38.324219-19.730469 37.65625-43.742188 63.078124-71.5 75.664062-14.484375 7.316406-30.6875 10.53125-46.867188 9.300781-8.03125-1.058593-15.738281-3.847656-22.585937-8.171875l-1.316407-.855468c-3.964843-2.796876-8.265624-5.089844-12.796874-6.828126-11.214844-4.191406-23.5625-4.191406-34.773438 0-4.535156 1.738282-8.832031 4.03125-12.800781 6.828126l-1.261719.8125c-6.855469 4.34375-14.570312 7.148437-22.613281 8.214843-16.175781 1.242188-32.382813-1.972656-46.859375-9.292969-45.355469-20.589843-79.359375-73.386718-103.851563-161.339843-11.6875-39.023438-11.292969-80.671875 1.136719-119.464844 2.371094.214844 4.589844.375 6.398438.445313h.617187c6.117187-.011719 11.765625-3.300782 14.792969-8.617188 3.03125-5.316406 2.984375-11.851562-.125-17.121094-1.253906-2.117187-2.996094-4.769531-4.949219-7.613281 27.160156-39.203125 78.007813-54.121094 122.042969-35.804687 5.742187 2.234374 12.46875 4.796874 19.566406 7.015624 11.328125 3.710938 22.996094 6.28125 34.832031 7.679688 3.414063.367188 6.871094.640625 10.242188.726562h.214843c.074219 0 .144532.039063.210938 0h.402344.222656c22.089844-1.398437 43.773438-6.617187 64.082031-15.421874 43.886719-18.410157 94.671875-3.667969 121.875 35.378906-16.632812 2.59375-28.90625 16.90625-28.929687 33.742187zm0 0"/><path d="m68.273438 110.933594c5.089843-.003906 9.914062-2.277344 13.152343-6.203125 3.242188-3.925781 4.558594-9.089844 3.597657-14.089844-2.746094-14.871094-8.027344-29.160156-15.617188-42.238281-6.804688-8.21875-17.476562-12.183594-27.996094-10.402344-10.519531 1.785156-19.289062 9.042969-23.007812 19.046875-3.714844 10.003906-1.8125 21.226563 4.992187 29.445313 11.433594 9.898437 24.484375 17.753906 38.582031 23.222656 2 .804687 4.136719 1.21875 6.296876 1.21875zm-34.621094-44.6875c.484375-5.15625 4.027344-9.511719 8.976562-11.035156 4.949219-1.527344 10.328125.082031 13.628906 4.070312 5.671876 10.878906 9.71875 22.53125 12.015626 34.585938-11.414063-4.5-22.101563-10.65625-31.726563-18.261719-2.175781-2.609375-3.21875-5.980469-2.894531-9.359375zm0 0"/><path d="m347.046875 157.789062c-11.542969 9.765626-21.324219 21.441407-28.917969 34.519532-3.109375 5.269531-3.15625 11.804687-.125 17.125 3.03125 5.316406 8.679688 8.601562 14.800782 8.609375h.617187c15.113281-.414063 30.042969-3.421875 44.140625-8.890625 14.035156-8.488282 18.601562-26.707032 10.222656-40.8125-8.378906-14.101563-26.5625-18.808594-40.730468-10.542969zm21.796875 36.695313c-11.632812 3.914063-23.773438 6.113281-36.039062 6.527344 6.207031-10.589844 13.9375-20.207031 22.949218-28.542969 1.96875-1.179688 4.222656-1.796875 6.519532-1.792969 5.761718-.007812 10.820312 3.839844 12.355468 9.398438 1.53125 5.554687-.839844 11.453125-5.796875 14.402343zm0 0"/><path d="m422.074219 106.667969c13.9375-5.855469 26.769531-14.0625 37.929687-24.261719 7.050782-8.351562 8.976563-19.886719 5.019532-30.074219-3.957032-10.1875-13.160157-17.402343-24-18.808593-10.839844-1.40625-21.578126 3.21875-28.003907 12.0625-7.226562 13.289062-12.113281 27.722656-14.457031 42.664062-.808594 4.941406.589844 9.992188 3.828125 13.808594 3.242187 3.816406 7.992187 6.019531 13 6.023437 2.300781-.011719 4.574219-.492187 6.683594-1.414062zm4.332031-50.5625c2.792969-3.679688 7.351562-5.570313 11.929688-4.949219 4.578124.625 8.464843 3.667969 10.167968 7.960938 1.707032 4.292968.964844 9.175781-1.941406 12.769531-9.417969 7.859375-19.933594 14.304687-31.214844 19.128906 1.964844-12.109375 5.691406-23.867187 11.058594-34.898437zm0 0"/></svg>