<?xml version="1.0" encoding="iso-8859-1"?>
<!-- Generator: Adobe Illustrator 19.0.0, SVG Export Plug-In . SVG Version: 6.00 Build 0)  -->
<svg version="1.1" id="Layer_1" xmlns="http://www.w3.org/2000/svg" xmlns:xlink="http://www.w3.org/1999/xlink" x="0px" y="0px"
	 viewBox="0 0 512.001 512.001" style="enable-background:new 0 0 512.001 512.001;" xml:space="preserve">
<g>
	<path style="fill:#C0C0C6;" d="M223.493,97.524C211.303,62.984,186.922,0,158.477,0C140.781,0,94.78,40.887,62.539,71.79
		c-4.224,4.048,0.915,10.738,5.93,7.723c28.438-17.103,64.543-35.479,81.882-30.751c7.449,2.032,24.381,81.27,24.381,81.27
		L223.493,97.524z"/>
	<path style="fill:#C0C0C6;" d="M288.509,97.524C300.7,62.984,325.081,0,353.525,0c17.696,0,63.697,40.887,95.938,71.79
		c4.224,4.048-0.915,10.738-5.93,7.723c-28.439-17.103-64.544-35.479-81.882-30.751c-7.449,2.032-24.381,81.27-24.381,81.27
		L288.509,97.524z"/>
</g>
<path style="fill:#9E9EA6;" d="M85.334,227.987c40.635-41.066,65.016-0.431,65.016-0.431v-56.889l-65.016,24.381V227.987z"/>
<path style="fill:#C0C0C6;" d="M4.064,219.321c0,21.333,67.429,56.889,91.429,8.127c25.628-52.07,54.857-48.762,54.857-48.762
	v-16.254C87.112,162.432,4.064,199.004,4.064,219.321z"/>
<path style="fill:#9E9EA6;" d="M426.668,227.987c-40.635-41.066-65.016-0.431-65.016-0.431v-56.889l65.016,24.381V227.987z"/>
<path style="fill:#C0C0C6;" d="M507.937,219.321c0,21.333-67.429,56.889-91.429,8.127c-25.628-52.07-54.857-48.762-54.857-48.762
	v-16.254C424.89,162.432,507.937,199.004,507.937,219.321z"/>
<path style="fill:#AC8A67;" d="M142.223,211.194c0,73.143,56.889,227.663,56.889,227.663c8.127,36.572,25.47,56.889,56.889,56.889
	s48.762-23.027,56.889-56.889c0,0,56.889-153.166,56.889-227.663H142.223z"/>
<path style="fill:#FFEBD2;" d="M271.175,94.82c-4.783,2.345-9.978,3.516-15.174,3.516c-5.196,0-10.391-1.172-15.174-3.516
	c-66.031-32.364-139.658,104.391-90.587,124.503c0,0,48.872,8.234,48.872,32.615s8.127,186.921,8.127,186.921h48.762h48.762
	c0,0,8.127-162.54,8.127-186.921s48.872-32.615,48.872-32.615C410.834,199.21,337.206,62.456,271.175,94.82z"/>
<path style="fill:#AC8A67;" d="M330.346,104.59c-17.931-13.67-38.902-19.705-59.171-9.772c-4.783,2.345-9.978,3.516-15.174,3.516
	c-5.196,0-10.391-1.172-15.174-3.516c-20.268-9.934-41.238-3.898-59.171,9.772c-11.071,67.046,41.837,83.704,41.837,122.966
	c0,16.254,0,130.032,0,170.667h32.508h32.508c0-40.635,0-154.413,0-170.667C288.509,188.294,341.417,171.636,330.346,104.59z"/>
<ellipse style="fill:#FFEBD2;" cx="256.001" cy="479.493" rx="40.635" ry="32.508"/>
<path style="fill:#FFFFFF;" d="M256.016,349.461h-0.031c-14.606,0-27.54,9.349-32.057,23.24
	c-9.612,29.561-24.816,78.259-24.816,90.538c0,17.954,14.554,32.508,32.508,32.508c5.859,0,11.318-1.582,16.035-4.318
	c5.226-3.032,11.467-3.032,16.693,0c4.717,2.737,10.176,4.318,16.035,4.318c17.954,0,32.508-14.554,32.508-32.508
	c0-12.279-15.204-60.977-24.817-90.538C283.557,358.81,270.623,349.461,256.016,349.461z"/>
<g>
	<circle style="fill:#464655;" cx="182.858" cy="235.683" r="16.254"/>
	<circle style="fill:#464655;" cx="329.144" cy="235.683" r="16.254"/>
	<path style="fill:#464655;" d="M296.101,425.064c0.144-0.448,0.392-0.866,0.457-1.331c0.107-0.761-0.01-1.531-0.121-2.296
		c-0.04-0.272,0.023-0.547-0.044-0.814c-0.127-0.503-0.456-0.95-0.683-1.428c-0.234-0.497-0.365-1.025-0.708-1.481l-0.007-0.006
		v-0.001c-2.531-3.372-7.151-4.091-10.66-1.937c-0.231,0.14-0.494,0.176-0.714,0.341l-1.936,1.463
		c-0.401,0.303-0.779,0.588-1.193,0.9c-14.373,10.834-34.462,10.865-48.864,0.073l-3.262-2.444c-1.738-1.304-3.825-1.767-5.822-1.53
		c-0.067,0.008-0.134-0.019-0.201-0.01c-0.428,0.062-0.81,0.295-1.223,0.424c-1.577,0.488-3.061,1.32-4.126,2.744
		c-2.698,3.587-1.969,8.683,1.627,11.373l3.254,2.444c0.01,0.008,0.021,0.012,0.033,0.02l29.222,21.917
		c1.436,1.08,3.151,1.627,4.873,1.627c1.572,0,3.143-0.452,4.516-1.365c1.824-1.22,20.472-15.279,29.753-22.288
		c0.01-0.008,0.022-0.013,0.033-0.021l3.095-2.342l0.005-0.006c0.001,0,0.001-0.001,0.001-0.001c0.146-0.11,0.212-0.275,0.348-0.392
		c0.7-0.605,1.349-1.256,1.791-2.021C295.836,426.175,295.926,425.608,296.101,425.064z"/>
</g>
<g>
</g>
<g>
</g>
<g>
</g>
<g>
</g>
<g>
</g>
<g>
</g>
<g>
</g>
<g>
</g>
<g>
</g>
<g>
</g>
<g>
</g>
<g>
</g>
<g>
</g>
<g>
</g>
<g>
</g>
</svg>
