<?xml version="1.0" encoding="iso-8859-1"?>
<!-- Generator: Adobe Illustrator 19.0.0, SVG Export Plug-In . SVG Version: 6.00 Build 0)  -->
<svg version="1.1" id="Layer_1" xmlns="http://www.w3.org/2000/svg" xmlns:xlink="http://www.w3.org/1999/xlink" x="0px" y="0px"
	 viewBox="0 0 512 512" style="enable-background:new 0 0 512 512;" xml:space="preserve">
<path style="fill:#E15649;" d="M0,512h128v-73.143H0V512z"/>
<path style="fill:#BC342E;" d="M128,512h128v-73.143H128V512z"/>
<path style="fill:#A52525;" d="M256,512h128v-73.143H256V512z"/>
<path style="fill:#E15649;" d="M384,512h128v-73.143H384V512z"/>
<path style="fill:#BC342E;" d="M0,438.857h64v-73.143H0V438.857z"/>
<g>
	<path style="fill:#A52525;" d="M448,438.857h64v-73.143h-64V438.857z"/>
	<path style="fill:#A52525;" d="M64,438.857h128v-73.143H64V438.857z"/>
</g>
<path style="fill:#E15649;" d="M192,438.857h128v-73.143H192V438.857z"/>
<path style="fill:#BC342E;" d="M320,438.857h128v-73.143H320V438.857z"/>
<path style="fill:#E15649;" d="M0,365.714h128v-73.143H0V365.714z"/>
<path style="fill:#BC342E;" d="M128,365.714h128v-73.143H128V365.714z"/>
<path style="fill:#A52525;" d="M256,365.714h128v-73.143H256V365.714z"/>
<path style="fill:#E15649;" d="M384,365.714h128v-73.143H384V365.714z"/>
<path style="fill:#BC342E;" d="M0,292.571h64v-73.143H0V292.571z"/>
<g>
	<path style="fill:#A52525;" d="M448,292.571h64v-73.143h-64V292.571z"/>
	<path style="fill:#A52525;" d="M64,292.571h128v-73.143H64V292.571z"/>
</g>
<path style="fill:#E15649;" d="M192,292.571h128v-73.143H192V292.571z"/>
<path style="fill:#BC342E;" d="M320,292.571h128v-73.143H320V292.571z"/>
<path style="fill:#E15649;" d="M0,219.429h128v-73.143H0V219.429z"/>
<path style="fill:#BC342E;" d="M128,219.429h128v-73.143H128V219.429z"/>
<path style="fill:#A52525;" d="M256,219.429h128v-73.143H256V219.429z"/>
<path style="fill:#E15649;" d="M384,219.429h128v-73.143H384V219.429z"/>
<path style="fill:#BC342E;" d="M0,146.286h64V73.143H0V146.286z"/>
<g>
	<path style="fill:#A52525;" d="M448,146.286h64V73.143h-64V146.286z"/>
	<path style="fill:#A52525;" d="M64,146.286h128V73.143H64V146.286z"/>
</g>
<path style="fill:#E15649;" d="M192,146.286h128V73.143H192V146.286z"/>
<path style="fill:#BC342E;" d="M320,146.286h128V73.143H320V146.286z"/>
<path style="fill:#E15649;" d="M0,73.143h128V0H0V73.143z"/>
<path style="fill:#BC342E;" d="M128,73.143h128V0H128V73.143z"/>
<path style="fill:#A52525;" d="M256,73.143h128V0H256V73.143z"/>
<path style="fill:#E15649;" d="M384,73.143h128V0H384V73.143z"/>
<g>
</g>
<g>
</g>
<g>
</g>
<g>
</g>
<g>
</g>
<g>
</g>
<g>
</g>
<g>
</g>
<g>
</g>
<g>
</g>
<g>
</g>
<g>
</g>
<g>
</g>
<g>
</g>
<g>
</g>
</svg>
