<?xml version="1.0" encoding="UTF-8" standalone="no"?>
<!DOCTYPE svg PUBLIC "-//W3C//DTD SVG 1.1//EN" "http://www.w3.org/Graphics/SVG/1.1/DTD/svg11.dtd">
<svg version="1.1" xmlns="http://www.w3.org/2000/svg" xmlns:xlink="http://www.w3.org/1999/xlink" preserveAspectRatio="xMidYMid meet" viewBox="0 0 512 140" width="512" height="140"><defs><path d="M42.21 129.56C42.21 135.12 46.73 139.64 52.29 139.64C55.64 139.64 82.42 139.64 85.77 139.64C90.75 139.64 95.07 136.01 95.74 131.07C99.92 100.27 126.32 76.53 158.27 76.53C190.21 76.53 216.62 100.27 220.79 131.07C221.46 136.01 225.78 139.64 230.76 139.64C235.81 139.64 276.19 139.64 281.24 139.64C286.22 139.64 290.54 136.01 291.21 131.07C295.39 100.27 321.79 76.53 353.73 76.53C385.68 76.53 412.08 100.27 416.26 131.07C416.93 136.01 421.25 139.64 426.23 139.64C429.58 139.64 456.36 139.64 459.71 139.64C465.27 139.64 469.79 135.12 469.79 129.56C469.79 119.5 469.79 39.03 469.79 28.97C469.79 23.41 465.27 18.9 459.71 18.9C418.97 18.9 93.03 18.9 52.29 18.9C46.73 18.9 42.21 23.41 42.21 28.97C42.21 49.09 42.21 119.5 42.21 129.56Z" id="n2qvvRuiDE"></path><path d="M42.21 129.56C42.21 135.12 46.73 139.64 52.29 139.64C55.64 139.64 82.42 139.64 85.77 139.64C90.75 139.64 95.07 136.01 95.74 131.07C99.92 100.27 126.32 76.53 158.27 76.53C190.21 76.53 216.62 100.27 220.79 131.07C221.46 136.01 225.78 139.64 230.76 139.64C232.44 139.64 240.8 139.64 255.86 139.64L255.86 18.9C133.72 18.9 65.86 18.9 52.29 18.9C46.73 18.9 42.21 23.41 42.21 28.97C42.21 49.09 42.21 119.5 42.21 129.56Z" id="becXXxfsS"></path><path d="M18.9 37.79C8.46 37.79 0 29.33 0 18.9C0 8.46 8.46 0 18.9 0C66.32 0 445.68 0 493.1 0C503.54 0 512 8.46 512 18.9C512 29.33 503.54 37.79 493.1 37.79C398.26 37.79 66.32 37.79 18.9 37.79Z" id="k2juOuCi10"></path><path d="M18.9 37.79C8.46 37.79 0 29.33 0 18.9C0 8.46 8.46 0 18.9 0C34.71 0 113.8 0 256.15 0L256.15 37.79C113.8 37.79 34.71 37.79 18.9 37.79Z" id="cFPfvAHBE"></path></defs><g><g><g><use xlink:href="#n2qvvRuiDE" opacity="1" fill="#387f9e" fill-opacity="1"></use><g><use xlink:href="#n2qvvRuiDE" opacity="1" fill-opacity="0" stroke="#000000" stroke-width="1" stroke-opacity="0"></use></g></g><g><use xlink:href="#becXXxfsS" opacity="1" fill="#29556e" fill-opacity="1"></use><g><use xlink:href="#becXXxfsS" opacity="1" fill-opacity="0" stroke="#000000" stroke-width="1" stroke-opacity="0"></use></g></g><g><use xlink:href="#k2juOuCi10" opacity="1" fill="#f79f4b" fill-opacity="1"></use><g><use xlink:href="#k2juOuCi10" opacity="1" fill-opacity="0" stroke="#000000" stroke-width="1" stroke-opacity="0"></use></g></g><g><use xlink:href="#cFPfvAHBE" opacity="1" fill="#ca8540" fill-opacity="1"></use><g><use xlink:href="#cFPfvAHBE" opacity="1" fill-opacity="0" stroke="#000000" stroke-width="1" stroke-opacity="0"></use></g></g></g></g></svg>