<?xml version="1.0" encoding="iso-8859-1"?>
<!-- Generator: Adobe Illustrator 19.0.0, SVG Export Plug-In . SVG Version: 6.00 Build 0)  -->
<svg version="1.1" id="Capa_1" xmlns="http://www.w3.org/2000/svg" xmlns:xlink="http://www.w3.org/1999/xlink" x="0px" y="0px"
	 viewBox="0 0 511.998 511.998" style="enable-background:new 0 0 511.998 511.998;" xml:space="preserve">
<path style="fill:#EF503F;" d="M370.598,146.886c-12.509-44.747-41.782-89.883-56.123-110.284
	c-3.055-4.346-10.081-3.936-12.538,0.772c-0.434,0.833-0.879,1.612-1.331,2.342c-5.41,8.734-18.488,9.59-25.26,1.832
	c-8.943-10.245-16.263-26.195-20.648-37.194c-2.004-5.025-9.202-5.91-12.618-1.555c-20.908,26.655-45.217,56.852-45.217,56.852
	c-29.995,36.181-51.109,68.14-56.727,93.439c-2.563,9.727-3.757,19.918-3.391,30.37c0.001,0.029,0.001,0.058,0.002,0.087
	c0.001,0.015,0.001,0.031,0.001,0.046c0.046,1.867,0.143,2.865,0.143,2.865c3.917,61.819,61.07,108.441,127.368,103.621
	c63.518-4.618,112.816-55.763,111.009-115.225C374.972,165.131,373.355,155.765,370.598,146.886z"/>
<path style="fill:#E54033;" d="M264.257,290.076c-22.427,1.636-43.804-2.625-62.423-11.373c8.501,1.132,17.27,1.42,26.204,0.772
	c63.524-4.621,112.814-55.764,111.013-115.223c-0.298-9.726-1.914-19.092-4.673-27.975c-9.284-33.224-27.82-66.674-42.621-90.037
	c3.561-0.967,6.772-3.17,8.852-6.525c0.453-0.731,0.895-1.513,1.328-2.336c2.46-4.714,9.479-5.126,12.536-0.772
	c14.347,20.399,43.619,65.531,56.124,110.282c2.758,8.872,4.374,18.238,4.673,27.964
	C377.071,234.312,327.781,285.465,264.257,290.076z"/>
<path style="fill:#AC7762;" d="M211.565,227.719l12.414,255.204c0.792,16.28,14.222,29.072,30.521,29.072l0,0
	c16.299,0,29.729-12.793,30.521-29.072l12.414-255.204c1.193-24.531-18.374-45.074-42.935-45.074l0,0
	C229.939,182.644,210.371,203.187,211.565,227.719z"/>
<path style="fill:#A06955;" d="M297.439,227.714l-12.423,255.209c-0.401,8.141-3.952,15.408-9.438,20.646
	c-5.496,5.228-12.927,8.429-21.079,8.429c-3.829,0-7.503-0.71-10.889-2.007c3.819-1.451,7.277-3.654,10.19-6.422
	c5.496-5.239,9.057-12.505,9.448-20.646l12.413-255.209c1.009-20.77-12.855-38.679-32.04-43.681
	c3.469-0.906,7.112-1.389,10.879-1.389C279.057,182.644,298.623,203.188,297.439,227.714z"/>
<path style="fill:#FFCD43;" d="M297.439,227.714l-1.009,20.77l-82.081,36.476l-2.789-57.246c-0.031-0.71-0.052-1.41-0.052-2.11
	c0-23.58,19.144-42.96,42.991-42.96C279.057,182.644,298.623,203.188,297.439,227.714z"/>
<path style="fill:#FFAF45;" d="M297.439,227.714c0,0.004-1.009,20.77-1.009,20.77l-22.262,9.891l1.492-30.661
	c1.009-20.77-12.855-38.679-32.04-43.681c0.494-0.134,0.998-0.247,1.503-0.36c15.074-3.384,31.157,1.805,41.455,13.344
	C294.044,205.385,297.983,216.514,297.439,227.714z"/>
<g>
</g>
<g>
</g>
<g>
</g>
<g>
</g>
<g>
</g>
<g>
</g>
<g>
</g>
<g>
</g>
<g>
</g>
<g>
</g>
<g>
</g>
<g>
</g>
<g>
</g>
<g>
</g>
<g>
</g>
</svg>
