<?xml version="1.0" encoding="iso-8859-1"?>
<!-- Generator: Adobe Illustrator 21.0.0, SVG Export Plug-In . SVG Version: 6.00 Build 0)  -->
<svg version="1.1" id="Capa_1" xmlns="http://www.w3.org/2000/svg" xmlns:xlink="http://www.w3.org/1999/xlink" x="0px" y="0px"
	 viewBox="0 0 512 512" style="enable-background:new 0 0 512 512;" xml:space="preserve">
<g>
	<path style="fill:#FDD7AD;" d="M256,0c-79.978,0-114.759,50.406-114.759,84.039s17.655,92.513,17.655,92.513
		c4.232,20.393,7.181,41.031,8.828,61.793c0,16.949,0,25.688,15.625,42.019c-1.589,9.004-4.414,23.217-7.239,37.694l1.589,17.39
		c24.773,10.709,51.329,16.697,78.301,17.655c26.972-0.958,53.527-6.946,78.301-17.655l1.589-17.39
		c-2.825-14.477-5.65-28.69-7.239-37.694c15.625-16.331,15.625-25.07,15.625-42.019c1.647-20.762,4.595-41.4,8.828-61.793
		c0,0,17.655-58.88,17.655-92.513S335.448,0,256,0z"/>
	<path style="fill:#CB8252;" d="M370.759,84.039c0,33.633-17.655,92.513-17.655,92.513c-6.905-14.249-12.176-29.234-15.713-44.668
		c-4.237-20.568-16.243-34.428-37.252-34.781c-11.564-0.177-26.483,0-26.483,0C256,97.103,256,70.621,256,70.621h-2.119
		c-38.442,0.833-71.433,27.61-80.154,65.059c-3.541,14.093-8.511,27.787-14.83,40.872c0,0-17.655-58.88-17.655-92.513
		S176.022,0,256,0C335.448,0,370.759,50.406,370.759,84.039z"/>
	<path style="fill:#CBB292;" d="M335.89,318.058l-1.589,0.353c-7.062,4.149-46.345,25.865-78.301,25.865
		s-71.239-21.716-78.301-25.865l-1.589-0.353c2.825-14.477,5.65-28.69,7.239-37.694c0.618,0.706,1.324,1.412,2.03,2.119
		l34.516,14.301c5.553,2.468,10.922,5.329,16.066,8.563c4.041,2.373,8.643,3.623,13.33,3.619h13.418
		c4.686,0.003,9.288-1.246,13.33-3.619c5.145-3.233,10.514-6.095,16.066-8.563l34.516-14.301c0.706-0.706,1.412-1.412,2.03-2.119
		C330.24,289.368,333.065,303.581,335.89,318.058z"/>
	<path style="fill:#35495E;" d="M512,467.862V512H0v-44.138c1.163-32.379,22.424-60.585,53.23-70.621
		c31.073-10.328,88.806-22.334,114.494-35.31c1.766-10.24,5.12-27.277,8.386-43.873l1.589,0.353
		c7.062,4.149,46.345,25.865,78.301,25.865s71.239-21.716,78.301-25.865l1.589-0.353c3.266,16.596,6.621,33.633,8.386,43.873
		c25.688,12.977,83.421,24.982,114.494,35.31C489.576,407.277,510.837,435.483,512,467.862z"/>
	<path style="fill:#2C3E50;" d="M347.189,363.343l-0.265,0.53l-1.854,0.353c-8.033,4.149-52.701,25.865-89.07,25.865
		s-81.037-21.716-89.07-25.865l-1.854-0.353l-0.265-0.53c0.971-0.441,1.942-0.971,2.913-1.412c1.766-10.24,5.12-27.277,8.386-43.873
		l1.589,0.353c7.062,4.149,46.345,25.865,78.301,25.865s71.239-21.716,78.301-25.865l1.589-0.353
		c3.266,16.596,6.621,33.633,8.386,43.873C345.247,362.372,346.218,362.902,347.189,363.343z"/>
	<path style="fill:#F0C419;" d="M264.828,512v-52.966h17.655c4.875,0,8.828-3.952,8.828-8.828c0-4.875-3.952-8.828-8.828-8.828
		h-17.655v-17.655c0-4.875-3.952-8.828-8.828-8.828s-8.828,3.952-8.828,8.828v17.655h-17.655c-4.875,0-8.828,3.952-8.828,8.828
		c0,4.875,3.952,8.828,8.828,8.828h17.655V512H264.828z"/>
	<path style="fill:#FFFFFF;" d="M289.28,385.412c-10.859,2.921-22.037,4.492-33.28,4.679c-11.243-0.187-22.421-1.758-33.28-4.679
		l0.441-1.854l4.855-43.697c9.084,2.736,18.498,4.221,27.983,4.414c9.485-0.192,18.9-1.677,27.983-4.414l4.855,43.697
		L289.28,385.412z"/>
	<g>
		<path style="fill:#E64C3C;" d="M167.724,361.931V512h-52.966V379.939C132.897,375.466,150.618,369.441,167.724,361.931z"/>
		<path style="fill:#E64C3C;" d="M397.241,379.939V512h-52.966V361.931C361.382,369.441,379.103,375.466,397.241,379.939z"/>
	</g>
</g>
<g>
</g>
<g>
</g>
<g>
</g>
<g>
</g>
<g>
</g>
<g>
</g>
<g>
</g>
<g>
</g>
<g>
</g>
<g>
</g>
<g>
</g>
<g>
</g>
<g>
</g>
<g>
</g>
<g>
</g>
</svg>
