<?xml version="1.0" encoding="iso-8859-1"?>
<!-- Generator: Adobe Illustrator 19.0.0, SVG Export Plug-In . SVG Version: 6.00 Build 0)  -->
<svg version="1.1" id="Layer_1" xmlns="http://www.w3.org/2000/svg" xmlns:xlink="http://www.w3.org/1999/xlink" x="0px" y="0px"
	 viewBox="0 0 512 512" style="enable-background:new 0 0 512 512;" xml:space="preserve">
<g>
	<path style="fill:#ACABB1;" d="M411.826,200.348v133.565h33.391c36.883,0,66.783-29.9,66.783-66.783v-50.087
		c0-9.22-7.475-16.696-16.696-16.696H411.826z"/>
	<path style="fill:#ACABB1;" d="M0,217.043v50.087c0,36.883,29.9,66.783,66.783,66.783h33.391V200.348H16.696
		C7.475,200.348,0,207.823,0,217.043z"/>
</g>
<path style="fill:#E0E0E2;" d="M256,0C151.497,0,66.783,84.715,66.783,189.216v133.566C66.783,427.285,151.497,512,256,512
	s189.217-84.715,189.217-189.217V189.216C445.217,84.715,360.503,0,256,0z"/>
<path style="fill:#C6C5CA;" d="M445.217,322.783V189.216C445.217,84.715,360.503,0,256,0v512
	C360.503,512,445.217,427.285,445.217,322.783z"/>
<path style="fill:#FF5023;" d="M233.739,250.435c0-27.619-22.468-50.087-50.087-50.087s-50.087,22.468-50.087,50.087
	s22.468,50.087,50.087,50.087S233.739,278.054,233.739,250.435z"/>
<circle style="fill:#FFFFFF;" cx="183.652" cy="250.435" r="16.696"/>
<path style="fill:#CD2A00;" d="M328.348,200.348c-27.619,0-50.087,22.468-50.087,50.087s22.468,50.087,50.087,50.087
	s50.087-22.468,50.087-50.087S355.967,200.348,328.348,200.348z"/>
<circle style="fill:#FFFFFF;" cx="328.348" cy="250.435" r="16.696"/>
<path style="fill:#5C5C5C;" d="M256,0C151.497,0,66.783,84.715,66.783,189.216v5.566h16.696c9.217,0,16.696-7.479,16.696-16.696
	c0-36.826,29.956-77.913,66.783-77.913s66.783,29.956,66.783,66.783c0,12.295,9.966,22.261,22.261,22.261
	c12.295,0,22.261-9.966,22.261-22.261c0-36.826,29.956-66.783,66.783-66.783s66.783,41.087,66.783,77.913
	c0,9.217,7.479,16.696,16.696,16.696h16.696v-5.566C445.217,84.715,360.503,0,256,0z"/>
<path style="fill:#3E3D42;" d="M256,0v189.217c12.295,0,22.261-9.966,22.261-22.261c0-36.826,29.956-66.783,66.783-66.783
	s66.783,41.087,66.783,77.913c0,9.217,7.479,16.696,16.696,16.696h16.696v-5.566C445.217,84.715,360.503,0,256,0z"/>
<path style="fill:#FFFFFF;" d="M328.348,378.435H183.652c-9.22,0-16.696,7.475-16.696,16.696c0,9.22,7.475,16.696,16.696,16.696
	h16.696v16.696c0,9.22,7.475,16.696,16.696,16.696c9.22,0,16.696-7.475,16.696-16.696v-16.696h44.522v16.696
	c0,9.22,7.475,16.696,16.696,16.696s16.696-7.475,16.696-16.696v-16.696h16.696c9.22,0,16.696-7.475,16.696-16.696
	C345.043,385.91,337.568,378.435,328.348,378.435z"/>
<g>
</g>
<g>
</g>
<g>
</g>
<g>
</g>
<g>
</g>
<g>
</g>
<g>
</g>
<g>
</g>
<g>
</g>
<g>
</g>
<g>
</g>
<g>
</g>
<g>
</g>
<g>
</g>
<g>
</g>
</svg>
