<?xml version="1.0" encoding="iso-8859-1"?>
<!-- Generator: Adobe Illustrator 19.0.0, SVG Export Plug-In . SVG Version: 6.00 Build 0)  -->
<svg version="1.1" id="Capa_1" xmlns="http://www.w3.org/2000/svg" xmlns:xlink="http://www.w3.org/1999/xlink" x="0px" y="0px"
	 viewBox="0 0 512 512" style="enable-background:new 0 0 512 512;" xml:space="preserve">
<path style="fill:#468466;" d="M308.928,355.943H203.073c-45.69,0-82.862,37.172-82.862,82.862V504.5c0,4.143,3.358,7.5,7.5,7.5
	h256.578c4.142,0,7.5-3.357,7.5-7.5v-65.694C391.789,393.115,354.617,355.943,308.928,355.943z"/>
<path style="fill:#346349;" d="M308.928,355.943h-27.333c45.69,0,82.861,37.172,82.861,82.862V504.5c0,4.143-3.357,7.5-7.5,7.5
	h27.333c4.142,0,7.5-3.357,7.5-7.5v-65.694C391.789,393.115,354.617,355.943,308.928,355.943z"/>
<polygon style="fill:#FA9E3E;" points="298.1,267.73 298.1,363.08 256,445 213.9,363.08 213.9,267.73 "/>
<path style="fill:#049B64;" d="M292.231,374.5c-24.16,15.33-48.314,15.337-72.462,0L256,445L292.231,374.5z"/>
<path style="fill:#669E7F;" d="M262.649,441.108l-41.274-79.852v-26.648c0-3.16-1.981-5.981-4.953-7.054
	c-2.973-1.077-6.299-0.168-8.317,2.262l-25.068,30.185c-0.767,0.924-1.3,2.018-1.557,3.189l-17.833,81.54
	c-0.639,2.923,0.519,5.945,2.948,7.691s5.662,1.883,8.229,0.348l31.549-18.876v7.439c0,1.855,0.687,3.645,1.93,5.022l27.826,30.857
	c1.432,1.588,3.461,2.478,5.569,2.478c0.319,0,0.64-0.021,0.96-0.061c2.441-0.315,4.572-1.808,5.703-3.994l14.286-27.639
	C263.766,445.836,263.766,443.268,262.649,441.108z"/>
<path style="fill:#5C9979;" d="M348.327,444.73l-17.833-81.54c-0.257-1.172-0.791-2.266-1.558-3.189l-25.066-30.184
	c-2.018-2.431-5.343-3.333-8.316-2.264c-2.973,1.073-4.953,3.895-4.953,7.055v26.647l-72.263,139.8
	c-1.65,3.193-0.804,7.108,2.019,9.334c1.365,1.076,3.005,1.61,4.643,1.61c1.751,0,3.499-0.611,4.904-1.825l73.1-63.167
	c1.649-1.425,2.597-3.496,2.597-5.675v-7.439l31.549,18.876c2.569,1.535,5.802,1.399,8.23-0.348
	C347.807,450.676,348.966,447.653,348.327,444.73z"/>
<path style="fill:#FFB700;" d="M361.656,471.167h-68.489c-4.143,0-7.5,3.357-7.5,7.5V504.5c0,4.143,3.357,7.5,7.5,7.5h68.489
	c4.143,0,7.5-3.357,7.5-7.5v-25.833C369.156,474.524,365.799,471.167,361.656,471.167z"/>
<rect x="327.41" y="478.67" style="fill:#FB403F;" width="34.24" height="25.833"/>
<g>
	<path style="fill:#FA9E3E;" d="M125.839,220.99h49.369v56.61h-49.369c-15.632,0-28.305-12.673-28.305-28.305
		S110.206,220.99,125.839,220.99z"/>
	<path style="fill:#FA9E3E;" d="M386.161,220.99h-49.369v56.61h49.369c15.632,0,28.305-12.673,28.305-28.305
		S401.793,220.99,386.161,220.99z"/>
</g>
<path style="fill:#FFB56B;" d="M368.114,109.781H143.885c-4.142,0-7.5,3.357-7.5,7.5v113.394
	c0,65.955,53.659,119.614,119.615,119.614c65.955,0,119.614-53.659,119.614-119.614V117.281
	C375.614,113.139,372.257,109.781,368.114,109.781z"/>
<path style="fill:#EF9245;" d="M368.114,109.781H341.85c3.673,0,6.65,3.357,6.65,7.5v113.394
	c0,63.542-44.162,115.663-99.686,119.392c2.378,0.142,4.773,0.222,7.186,0.222c65.955,0,119.614-53.659,119.614-119.614V117.281
	C375.614,113.139,372.257,109.781,368.114,109.781z"/>
<g>
	<path style="fill:#19303F;" d="M310.323,232.962c-4.142,0-7.5-3.357-7.5-7.5v-2c0-4.143,3.358-7.5,7.5-7.5
		c4.143,0,7.5,3.357,7.5,7.5v2C317.823,229.605,314.466,232.962,310.323,232.962z"/>
	<path style="fill:#19303F;" d="M201.676,232.962c-4.142,0-7.5-3.357-7.5-7.5v-2c0-4.143,3.358-7.5,7.5-7.5s7.5,3.357,7.5,7.5v2
		C209.176,229.605,205.818,232.962,201.676,232.962z"/>
	<path style="fill:#19303F;" d="M256,288.484c-13.494,0-26.142-6.632-33.833-17.739c-2.358-3.405-1.509-8.078,1.897-10.435
		c3.405-2.358,8.079-1.509,10.435,1.896c4.89,7.063,12.927,11.278,21.501,11.278c8.573,0,16.61-4.216,21.501-11.278
		c2.358-3.404,7.029-4.256,10.435-1.896c3.405,2.358,4.255,7.03,1.897,10.435C282.141,281.853,269.494,288.484,256,288.484z"/>
</g>
<path style="fill:#468466;" d="M438.397,283.157l-7.253-94.609c-0.092-1.195-0.469-2.352-1.1-3.371l-20.22-32.698l-2.216-41.928
	C404.335,48.56,353.142,0,291.064,0h-70.129c-62.078,0-113.27,48.56-116.545,110.551l-2.215,41.928l-20.22,32.698
	c-0.63,1.02-1.007,2.176-1.099,3.371l-7.253,94.609c-0.16,2.083,0.557,4.138,1.976,5.67s3.414,2.403,5.502,2.403h19.065
	c2.902,0,5.544-1.675,6.783-4.3l34.944-74.059l37.564-20.798h153.127l37.563,20.799l34.944,74.058c1.239,2.625,3.881,4.3,6.783,4.3
	h19.064c2.089,0,4.083-0.871,5.502-2.403C437.841,287.295,438.556,285.24,438.397,283.157z"/>
<path style="fill:#346349;" d="M438.397,283.157l-7.253-94.609c-0.092-1.195-0.469-2.352-1.1-3.371l-20.22-32.698l-2.216-41.928
	C404.335,48.56,353.142,0,291.064,0h-23.953c62.078,0,113.271,48.56,116.545,110.551l2.216,41.928l20.22,32.698
	c0.631,1.02,1.008,2.176,1.1,3.371l7.253,94.609c0.159,2.083-0.557,4.138-1.977,5.67c-0.844,0.911-1.894,1.582-3.044,1.982
	c0.772,0.265,1.587,0.422,2.431,0.422h19.064c2.089,0,4.083-0.871,5.502-2.403C437.841,287.295,438.556,285.24,438.397,283.157z"/>
<g>
	<path style="fill:#F0EEEE;" d="M282.827,95.502c-1.121,0-2.259-0.253-3.331-0.785L256,83.042l-23.496,11.675
		c-3.71,1.841-8.21,0.33-10.054-3.38c-1.843-3.709-0.33-8.21,3.379-10.054l26.833-13.333c2.103-1.045,4.574-1.045,6.674,0
		l26.833,13.333c3.71,1.844,5.223,6.345,3.38,10.054C288.239,93.975,285.585,95.502,282.827,95.502z"/>
	<path style="fill:#F0EEEE;" d="M282.827,123c-1.121,0-2.259-0.253-3.331-0.785L256,110.54l-23.496,11.675
		c-3.71,1.842-8.21,0.33-10.054-3.38c-1.843-3.709-0.33-8.21,3.379-10.054l26.833-13.333c2.103-1.045,4.574-1.045,6.674,0
		l26.833,13.333c3.71,1.844,5.223,6.345,3.38,10.054C288.239,121.473,285.585,123,282.827,123z"/>
</g>
<path style="fill:#FB403F;" d="M361.656,471.167h-34.245V512h34.245c4.143,0,7.5-3.357,7.5-7.5v-25.833
	C369.156,474.524,365.799,471.167,361.656,471.167z"/>
<g>
</g>
<g>
</g>
<g>
</g>
<g>
</g>
<g>
</g>
<g>
</g>
<g>
</g>
<g>
</g>
<g>
</g>
<g>
</g>
<g>
</g>
<g>
</g>
<g>
</g>
<g>
</g>
<g>
</g>
</svg>
