<?xml version="1.0" encoding="iso-8859-1"?>
<!-- Generator: Adobe Illustrator 19.0.0, SVG Export Plug-In . SVG Version: 6.00 Build 0)  -->
<svg version="1.1" id="Layer_1" xmlns="http://www.w3.org/2000/svg" xmlns:xlink="http://www.w3.org/1999/xlink" x="0px" y="0px"
	 viewBox="0 0 496.32 496.32" style="enable-background:new 0 0 496.32 496.32;" xml:space="preserve">
<ellipse style="fill:#63427C;" cx="248.152" cy="296.96" rx="98.672" ry="49.816"/>
<circle style="fill:#5E362E;" cx="248.16" cy="113.68" r="113.68"/>
<path style="fill:#422520;" d="M248.152,0C310.944,0,361.84,50.896,361.84,113.68c0,62.8-50.896,113.688-113.688,113.688"/>
<rect x="168.16" y="288.32" style="fill:#895C50;" width="160" height="168"/>
<path style="fill:#9461AF;" d="M458.064,333.704L341.616,293.52l2.456-6.552l-15.216-6.384
	c-6.088,27.528-39.84,48.624-80.688,48.624c-40.856,0-74.6-21.08-80.68-48.608l-15.24,6.408l2.464,6.592L38.256,333.704
	L16.16,496.32h29.448h150.168h45.52h13.736h47.648h148.04h29.44L458.064,333.704z"/>
<g>
	<path style="fill:#7C4F99;" d="M240.16,496.32h14.864h47.648h148.04h29.448l-22.096-162.616L341.616,293.52l2.456-6.552
		l-15.216-6.384c-6.088,27.528-39.84,48.624-80.688,48.624c-40.856,0-74.6-21.08-80.68-48.608l-15.808,6.24"/>
</g>
<g>
	<polygon style="fill:#895C50;" points="306.84,312.32 191.232,312.32 198.952,216.32 299.136,216.32 	"/>
	<polygon style="fill:#895C50;" points="308.664,310.504 248.168,469.056 187.656,310.504 248.168,311.144 	"/>
</g>
<polygon style="fill:#774940;" points="306.84,311.464 261.048,405.672 191.248,216.32 299.136,216.32 "/>
<path style="fill:#A87160;" d="M324.656,148.464c0-67.088-36.496-101.896-76.496-102.168v-0.032v0.008v-0.008v0.024
	c-40,0.272-76.496,35.08-76.496,102.168c0,67.096,36.496,127.752,76.496,129.192v0.144v-0.064v0.064v-0.144
	C288.16,276.216,324.656,215.56,324.656,148.464z"/>
<path style="fill:#895C50;" d="M248.16,280.32v-2.52v-0.064v0.064v-0.144c40-1.44,76.496-62.096,76.496-129.192
	c0-67.088-36.496-101.896-76.496-102.168v-0.032v0.008v-0.008v2.056"/>
<g>
	<path style="fill:#00233F;" d="M205.816,227.816c-0.184-0.216-0.296-0.36-0.296-0.36S205.6,227.656,205.816,227.816z"/>
	<path style="fill:#00233F;" d="M292.256,227.816c0.184-0.216,0.296-0.36,0.296-0.36S292.472,227.656,292.256,227.816z"/>
</g>
<polygon style="fill:#EF8CF2;" points="248.168,469.056 289.664,360.32 206.664,360.32 "/>
<polygon style="fill:#D87CDD;" points="248.168,469.056 289.664,360.32 232.616,360.32 "/>
<path style="fill:#5E362E;" d="M355.136,98.352c0,26.288-47.896,47.584-106.984,47.584s-106.968-21.304-106.968-47.584
	s47.88-70.576,106.968-70.576S355.136,72.08,355.136,98.352z"/>
<path style="fill:#422520;" d="M248.152,27.784c59.088,0,106.984,44.296,106.984,70.576c0,26.288-47.896,47.584-106.984,47.584"/>
<g>
	<path style="fill:#5E362E;" d="M195.704,137.48c0,13.496-10.936,32.096-24.424,32.096c-13.504,0-16.768-10.936-16.768-24.44
		c0-13.488,10.936-24.424,24.432-24.424C192.432,120.712,195.704,123.984,195.704,137.48z"/>
	<polygon style="fill:#5E362E;" points="177.504,162.464 189.952,224.32 169.848,224.32 160.264,165.128 	"/>
</g>
<g>
	<path style="fill:#422520;" d="M300.608,137.48c0,13.496,10.936,32.096,24.432,32.096s16.768-10.936,16.768-24.44
		c0-13.488-10.944-24.424-24.432-24.424C303.88,120.712,300.608,123.984,300.608,137.48z"/>
	<polygon style="fill:#422520;" points="318.816,162.464 306.368,224.32 326.472,224.32 336.056,165.128 	"/>
</g>
<path style="fill:#34D159;" d="M150.448,337.696c0-14.84,0.624-29.28,1.816-43.344L38.256,333.664L16.16,496.32h29.448h132.824
	C161.12,456.32,150.448,399.536,150.448,337.696z"/>
<path style="fill:#16A835;" d="M48.16,496.32h130.264c-17.304-40-27.976-96.784-27.976-158.624c0-14.84,0.624-29.28,1.816-43.344
	L39.536,333.664"/>
<path style="fill:#34D159;" d="M458.064,333.704l-114-39.352c1.176,14.08,1.808,28.464,1.808,43.304
	c0,61.84-10.672,118.664-27.976,158.664H450.72h29.44L458.064,333.704z"/>
<path style="fill:#16A835;" d="M456.784,333.704l-112.72-39.352c1.176,14.08,1.488,28.464,1.488,43.304
	c0,61.84-10.352,118.664-27.656,158.664H448.16"/>
<g>
	<ellipse style="fill:#63427C;" cx="103.968" cy="423.456" rx="34.496" ry="2.856"/>
	<ellipse style="fill:#63427C;" cx="392.32" cy="423.456" rx="34.496" ry="2.856"/>
</g>
<g>
</g>
<g>
</g>
<g>
</g>
<g>
</g>
<g>
</g>
<g>
</g>
<g>
</g>
<g>
</g>
<g>
</g>
<g>
</g>
<g>
</g>
<g>
</g>
<g>
</g>
<g>
</g>
<g>
</g>
</svg>
