<?xml version="1.0" encoding="iso-8859-1"?>
<!-- Generator: Adobe Illustrator 19.0.0, SVG Export Plug-In . SVG Version: 6.00 Build 0)  -->
<svg version="1.1" id="Capa_1" xmlns="http://www.w3.org/2000/svg" xmlns:xlink="http://www.w3.org/1999/xlink" x="0px" y="0px"
	 viewBox="0 0 512 512" style="enable-background:new 0 0 512 512;" xml:space="preserve">
<path style="fill:#FFD45A;" d="M435.985,489.489c-17.942-31.014-43.742-57.025-74.61-75.221
	C329.56,395.513,293.122,385.6,255.998,385.6c-37.123,0-73.563,9.914-105.377,28.668c-30.867,18.197-56.666,44.208-74.606,75.222
	c-2.685,4.641-2.688,10.361-0.009,15.005C78.685,509.14,83.638,512,88.999,512h334.003c5.361,0,10.315-2.861,12.994-7.506
	C438.673,499.85,438.67,494.129,435.985,489.489z"/>
<path style="fill:#FFBE06;" d="M435.985,489.489c-17.942-31.014-43.742-57.025-74.61-75.221
	c-31.805-18.748-68.229-28.661-105.341-28.668V512h166.968c5.361,0,10.315-2.861,12.994-7.506
	C438.673,499.85,438.67,494.129,435.985,489.489z"/>
<path style="fill:#CD7A61;" d="M342.581,404.451c-27.257-12.509-56.386-18.852-86.579-18.852c-30.196,0-59.326,6.343-86.581,18.853
	c-5.415,2.484-8.844,7.937-8.741,13.893c0.436,25.113,10.543,48.653,28.464,66.282C207.084,502.279,230.828,512,255.999,512
	s48.915-9.721,66.857-27.373c17.92-17.629,28.029-41.171,28.465-66.283C351.424,412.388,347.994,406.936,342.581,404.451z"/>
<path style="fill:#A65D47;" d="M351.322,418.344c0.103-5.956-3.328-11.408-8.741-13.893c-27.247-12.504-56.365-18.847-86.547-18.851
	V512c25.158-0.009,48.89-9.728,66.823-27.373C340.777,466.998,350.886,443.457,351.322,418.344z"/>
<path style="fill:#CD7A61;" d="M395.818,63.905c-11.177-21.353-27.462-36.883-49.788-47.476C322.73,5.374,293.281,0,255.998,0
	c-37.284,0-66.733,5.374-90.033,16.43c-22.326,10.594-38.611,26.123-49.788,47.478c-19.786,37.8-19.783,88.435-19.78,142.041V256
	c0,88.004,71.597,159.6,159.602,159.6c88.003,0,159.6-71.595,159.6-159.6v-50.056C415.601,152.338,415.602,101.706,395.818,63.905z"
	/>
<path style="fill:#A65D47;" d="M395.818,63.905c-11.177-21.353-27.462-36.883-49.788-47.476C322.737,5.377,293.3,0.004,256.034,0
	v415.599C344.02,415.58,415.598,343.993,415.598,256v-50.056C415.601,152.338,415.602,101.706,395.818,63.905z"/>
<g>
	<path style="fill:#FF1273;" d="M411.081,112.985c-0.971-6.036-5.461-10.746-11.172-12.173c-21.459-5.739-43.58-8.648-65.754-8.648
		c-25.734,0-51.291,3.888-75.963,11.556c-5.016,1.56-8.852,5.629-10.109,10.729c-1.26,5.1,0.24,10.487,3.957,14.202l137.954,137.955
		c2.869,2.87,6.706,4.395,10.608,4.395c1.934,0,3.883-0.374,5.738-1.142c5.605-2.322,9.26-7.792,9.26-13.858v-49.959
		C415.601,172.661,415.602,141.132,411.081,112.985z"/>
	<path style="fill:#FF1273;" d="M410.942,112.144c-6.07-36.936-19.268-62.679-41.492-80.97C343.963,10.197,306.853,0,255.998,0
		c-37.283,0-66.732,5.374-90.031,16.43c-22.326,10.594-38.613,26.123-49.788,47.478c-19.785,37.8-19.783,88.435-19.78,142.041V256
		c0,7.156,5.055,13.315,12.073,14.712c0.983,0.195,1.963,0.29,2.934,0.29c5.968,0,11.496-3.575,13.851-9.262
		c25.77-62.209,77.467-109.365,141.841-129.372c21.785-6.771,44.347-10.204,67.058-10.204c19.633,0,39.221,2.586,58.221,7.688
		c1.27,0.341,2.582,0.513,3.898,0.513c0,0,0.009,0,0.016,0c8.285,0,15-6.716,15-15C411.29,114.259,411.17,113.181,410.942,112.144z"
		/>
</g>
<path style="fill:#FF4591;" d="M410.942,112.144c-6.07-36.936-19.268-62.679-41.492-80.97C343.969,10.202,306.87,0.005,256.034,0
	v136.129c3.645-1.34,7.33-2.602,11.064-3.762c21.785-6.771,44.347-10.204,67.058-10.204c19.633,0,39.221,2.586,58.221,7.688
	c1.27,0.341,2.582,0.513,3.898,0.513c0,0,0.009,0,0.016,0c8.285,0,15-6.716,15-15C411.29,114.259,411.17,113.181,410.942,112.144z"
	/>
<g>
</g>
<g>
</g>
<g>
</g>
<g>
</g>
<g>
</g>
<g>
</g>
<g>
</g>
<g>
</g>
<g>
</g>
<g>
</g>
<g>
</g>
<g>
</g>
<g>
</g>
<g>
</g>
<g>
</g>
</svg>
